<svg xmlns="http://www.w3.org/2000/svg" width="77" height="78" viewBox="0 0 77 78">
  <metadata><?xpacket begin="﻿" id="W5M0MpCehiHzreSzNTczkc9d"?>
<x:xmpmeta xmlns:x="adobe:ns:meta/" x:xmptk="Adobe XMP Core 5.6-c138 79.159824, 2016/09/14-01:09:01        ">
   <rdf:RDF xmlns:rdf="http://www.w3.org/1999/02/22-rdf-syntax-ns#">
      <rdf:Description rdf:about=""/>
   </rdf:RDF>
</x:xmpmeta>
                                                                                                    
                                                                                                    
                                                                                                    
                                                                                                    
                                                                                                    
                                                                                                    
                                                                                                    
                                                                                                    
                                                                                                    
                                                                                                    
                                                                                                    
                                                                                                    
                                                                                                    
                                                                                                    
                                                                                                    
                                                                                                    
                                                                                                    
                                                                                                    
                                                                                                    
                                                                                                    
                           
<?xpacket end="w"?></metadata>
<defs>
    <style>
      .cls-1 {
        fill: #d8d8d8;
        fill-rule: evenodd;
      }
    </style>
  </defs>
  <path id="recent-news-2" class="cls-1" d="M-2,79.993v-82H79v82H-2Zm79-80H0v78H77v-78ZM7,8H36v2h0v20H34V29.066h0V10.923h0V10H9v20H7V10H7V8Zm2,22H36v2H7v-2H9Zm25,0h0Zm0,0L21.5,20.459l0.608-.464L34,29.066v0.928h0ZM21.5,19.531L34,10v0.927L22.108,19.995Zm-0.608.464L9,10.923V10l12.5,9.535Zm0,0L21.5,20.459,9,29.994H9V29.066ZM30,39H7v-2H30v2Zm6,4H7V42H36v1Zm0,4H7V46H36v1ZM24,51H7V50H24v1Zm12,4H7V54H36v1Zm0,4H7V58H36v1Zm0,4H7V62H36v1ZM24,67H7V66H24v1Zm17-58H54v2h0v9h0v2H41V20h0v-9h0v-2Zm2,11h9V19.067h0V11.924h0V10.995H43v9Zm3.983-4.5L47.5,15.959,43,20V19.067Zm1.035,0L52,19.067v0.928l-4.5-4.035ZM47.5,15.031L52,11v0.929L48.017,15.5Zm-0.517.464L43,11.923V10.995l4.5,4.036ZM41,24.995H54v2h0v9h0v2H41v-2h0v-9h0v-2Zm2,11h9V35.067h0V27.924h0V26.995H43v9Zm3.983-4.5L47.5,31.959,43,35.995V35.067Zm1.035,0L52,35.067v0.928l-4.5-4.035ZM47.5,31.031L52,27v0.929L48.017,31.5Zm-0.517.464L43,27.923V26.995l4.5,4.036ZM41,40.995H54v2h0v9h0v2H41V52h0v-9h0v-2Zm2,11h9V51.067h0V43.924h0V42.995H43v9Zm3.983-4.5L47.5,47.959,43,52V51.067Zm1.035,0L52,51.067v0.928l-4.5-4.035ZM47.5,47.031L52,43v0.929L48.017,47.5Zm-0.517.464L43,43.923V42.995l4.5,4.036ZM41,56.995H54v2h0v9h0v2H41V68h0v-9h0v-2Zm2,11h9V67.067h0V59.924h0V58.995H43v9Zm3.983-4.5L47.5,63.959,43,68V67.067Zm1.035,0L52,67.067v0.928l-4.5-4.035ZM47.5,63.031L52,59v0.929L48.017,63.5Zm-0.517.464L43,59.923V58.995l4.5,4.036ZM66,10.994H57v-2h9v2Zm0,16H57V25h9v2Zm0,16H57V41h9v2Zm0,16H57V57h9v2Zm4,4H57V62H70v1Zm-7,4H57V66h6v1ZM57,51V50h6v1H57Zm0-5H70v1H57V46Zm0-11V34h6v1H57Zm0-5H70v1H57V30Zm0-11V18h6v1H57Zm0-5H70v1H57V14Z"/>
</svg>
