<svg xmlns="http://www.w3.org/2000/svg" width="77" height="78" viewBox="0 0 77 78">
  <metadata><?xpacket begin="﻿" id="W5M0MpCehiHzreSzNTczkc9d"?>
<x:xmpmeta xmlns:x="adobe:ns:meta/" x:xmptk="Adobe XMP Core 5.6-c138 79.159824, 2016/09/14-01:09:01        ">
   <rdf:RDF xmlns:rdf="http://www.w3.org/1999/02/22-rdf-syntax-ns#">
      <rdf:Description rdf:about=""/>
   </rdf:RDF>
</x:xmpmeta>
                                                                                                    
                                                                                                    
                                                                                                    
                                                                                                    
                                                                                                    
                                                                                                    
                                                                                                    
                                                                                                    
                                                                                                    
                                                                                                    
                                                                                                    
                                                                                                    
                                                                                                    
                                                                                                    
                                                                                                    
                                                                                                    
                                                                                                    
                                                                                                    
                                                                                                    
                                                                                                    
                           
<?xpacket end="w"?></metadata>
<defs>
    <style>
      .cls-1 {
        fill: #d8d8d8;
        fill-rule: evenodd;
      }
    </style>
  </defs>
  <path id="recent-news-1" class="cls-1" d="M-2,79.993v-82H79v82H-2Zm79-80H0v78H77v-78Zm-70,49H22v2h0v6h0v2H7V57H7v-6H7v-2Zm2,8H20V56.067h0V51.924h0V50.995H9v6Zm4.494-3L14.5,54.459,9,57V56.067Zm2.013,0L20,56.067v0.928l-5.5-2.536ZM14.5,53.531L20,50.995v0.929L15.506,54ZM13.493,54L9,51.923V50.995l5.5,2.536ZM7,61.995H22v2h0v6h0v2H7V70H7v-6H7v-2Zm2,8H20V69.067h0V64.924h0V63.995H9v6Zm4.494-3L14.5,67.459,9,70V69.067Zm2.013,0L20,69.067v0.928l-5.5-2.536ZM14.5,66.531L20,63.995v0.929L15.506,67ZM13.493,67L9,64.923V63.995l5.5,2.536ZM57,52.994H27V51H57v2Zm0,13H27V64H57v2Zm12,4H27V69H69v1ZM27,56H69v1H27V56ZM7,43H70v1H7V43Zm57-4H7v-2H64v2Zm-57-8H70v2H7v-2Zm61-.929h0V10.923h0V10H9v21H7V10H7V8H70v2h0v21H68V30.066ZM37.136,20.495L38.5,20.959,9,30.994H9V30.066Zm2.727,0L68,30.066v0.928h0L38.5,20.959ZM68,30.994h0ZM38.5,20.031L68,10v0.927L39.864,20.495Zm-1.364.464L9,10.923V10L38.5,20.031Z"/>
</svg>
