<?xml version="1.0" encoding="UTF-8"?> <svg xmlns="http://www.w3.org/2000/svg" width="38" height="45.713" viewBox="0 0 38 45.713"><path id="Subtraction_1" data-name="Subtraction 1" d="M-2525.13,218.583a.375.375,0,0,1-.268-.111l-13.167-13.166a18.877,18.877,0,0,1-5.565-13.435,18.877,18.877,0,0,1,5.565-13.435,18.877,18.877,0,0,1,13.436-5.565,18.876,18.876,0,0,1,13.435,5.565,18.877,18.877,0,0,1,5.565,13.435,18.877,18.877,0,0,1-5.565,13.435l-13.166,13.166A.379.379,0,0,1-2525.13,218.583ZM-2525,182a8.009,8.009,0,0,0-8,8,8.009,8.009,0,0,0,8,8,8.009,8.009,0,0,0,8-8A8.009,8.009,0,0,0-2525,182Z" transform="translate(2544.13 -172.87)" fill="#f8b339"></path></svg> 